ffmpeg version 2021-10-14-git-c336c7a9d7-essentials_build-www.gyan.dev Copyright (c) 2000-2021 the FFmpeg developers
  built with gcc 10.3.0 (Rev5, Built by MSYS2 project)
  configuration: --enable-gpl --enable-version3 --enable-static --disable-w32threads --disable-autodetect --enable-fontconfig --enable-iconv --enable-gnutls --enable-libxml2 --enable-gmp --enable-lzma --enable-zlib --enable-libsrt --enable-libssh --enable-libzmq --enable-avisynth --enable-sdl2 --enable-libwebp --enable-libx264 --enable-libx265 --enable-libxvid --enable-libaom --enable-libopenjpeg --enable-libvpx --enable-libass --enable-libfreetype --enable-libfribidi --enable-libvidstab --enable-libvmaf --enable-libzimg --enable-amf --enable-cuda-llvm --enable-cuvid --enable-ffnvcodec --enable-nvdec --enable-nvenc --enable-d3d11va --enable-dxva2 --enable-libmfx --enable-libgme --enable-libopenmpt --enable-libopencore-amrwb --enable-libmp3lame --enable-libtheora --enable-libvo-amrwbenc --enable-libgsm --enable-libopencore-amrnb --enable-libopus --enable-libspeex --enable-libvorbis --enable-librubberband
  libavutil      57.  7.100 / 57.  7.100
  libavcodec     59. 12.100 / 59. 12.100
  libavformat    59.  6.100 / 59.  6.100
  libavdevice    59.  0.101 / 59.  0.101
  libavfilter     8. 14.100 /  8. 14.100
  libswscale      6.  1.100 /  6.  1.100
  libswresample   4.  0.100 /  4.  0.100
  libpostproc    56.  0.100 / 56.  0.100
Splitting the commandline.
Reading option '-v' ... matched as option 'v' (set logging level) with argument 'debug'.
Reading option '-nostdin' ... matched as option 'stdin' (enable or disable interaction on standard input) with argument 0.
Reading option '-progress' ... matched as option 'progress' (write program-readable progress information) with argument 'C:/Users/LD/AppData/Local/Temp/KritaFFmpegProgress.yMCZpk'.
Reading option '-r' ... matched as option 'r' (set frame rate (Hz value, fraction or abbreviation)) with argument '24'.
Reading option '-start_number' ... matched as AVOption 'start_number' with argument '0'.
Reading option '-i' ... matched as input url with argument 'C:/Users/LD/Pictures/cubariaa - Copy/story/prologue/frame%04d.png'.
Reading option '-i' ... matched as input url with argument 'C:/Users/LD/Pictures/cubariaa - Copy/story/prologue/palette.png'.
Reading option '-lavfi' ... matched as option 'lavfi' (create a complex filtergraph) with argument '[0:v][1:v] paletteuse'.
Reading option '-y' ... matched as option 'y' (overwrite output files) with argument '1'.
Reading option 'C:/Users/LD/Pictures/cubariaa - Copy/story/prologue/gollect.gif' ... matched as output url.
Finished splitting the commandline.
Parsing a group of options: global .
Applying option v (set logging level) with argument debug.
Applying option nostdin (enable or disable interaction on standard input) with argument 0.
Applying option progress (write program-readable progress information) with argument C:/Users/LD/AppData/Local/Temp/KritaFFmpegProgress.yMCZpk.
[file @ 000002abbed8bac0] Setting default whitelist 'file,crypto,data'
Applying option lavfi (create a complex filtergraph) with argument [0:v][1:v] paletteuse.
Applying option y (overwrite output files) with argument 1.
Successfully parsed a group of options.
Parsing a group of options: input url C:/Users/LD/Pictures/cubariaa - Copy/story/prologue/frame%04d.png.
Applying option r (set frame rate (Hz value, fraction or abbreviation)) with argument 24.
Successfully parsed a group of options.
Opening an input file: C:/Users/LD/Pictures/cubariaa - Copy/story/prologue/frame%04d.png.
[image2 @ 000002abbedcc100] Opening 'C:/Users/LD/Pictures/cubariaa - Copy/story/prologue/frame0000.png' for reading
[file @ 000002abbedcf300] Setting default whitelist 'file,crypto,data'
[AVIOContext @ 000002abbedd74c0] Statistics: 12121 bytes read, 0 seeks
[image2 @ 000002abbedcc100] Opening 'C:/Users/LD/Pictures/cubariaa - Copy/story/prologue/frame0001.png' for reading
[file @ 000002abbedcf3c0] Setting default whitelist 'file,crypto,data'
[AVIOContext @ 000002abbedcf4c0] Statistics: 11883 bytes read, 0 seeks
[image2 @ 000002abbedcc100] Opening 'C:/Users/LD/Pictures/cubariaa - Copy/story/prologue/frame0002.png' for reading
[file @ 000002abbedcf480] Setting default whitelist 'file,crypto,data'
[AVIOContext @ 000002abbedcf680] Statistics: 11818 bytes read, 0 seeks
[image2 @ 000002abbedcc100] Opening 'C:/Users/LD/Pictures/cubariaa - Copy/story/prologue/frame0003.png' for reading
[file @ 000002abbedcf680] Setting default whitelist 'file,crypto,data'
[AVIOContext @ 000002abbedcf780] Statistics: 11890 bytes read, 0 seeks
[image2 @ 000002abbedcc100] Opening 'C:/Users/LD/Pictures/cubariaa - Copy/story/prologue/frame0004.png' for reading
[file @ 000002abbedcf740] Setting default whitelist 'file,crypto,data'
[AVIOContext @ 000002abbedcf940] Statistics: 11877 bytes read, 0 seeks
[image2 @ 000002abbedcc100] Opening 'C:/Users/LD/Pictures/cubariaa - Copy/story/prologue/frame0005.png' for reading
[file @ 000002abbedcf940] Setting default whitelist 'file,crypto,data'
[AVIOContext @ 000002abbedcfb00] Statistics: 11788 bytes read, 0 seeks
[image2 @ 000002abbedcc100] Opening 'C:/Users/LD/Pictures/cubariaa - Copy/story/prologue/frame0006.png' for reading
[file @ 000002abbedcfb00] Setting default whitelist 'file,crypto,data'
[AVIOContext @ 000002abbedcfd40] Statistics: 11905 bytes read, 0 seeks
[image2 @ 000002abbedcc100] Opening 'C:/Users/LD/Pictures/cubariaa - Copy/story/prologue/frame0007.png' for reading
[file @ 000002abbedcfd40] Setting default whitelist 'file,crypto,data'
[AVIOContext @ 000002abbedcff00] Statistics: 11986 bytes read, 0 seeks
[image2 @ 000002abbedcc100] Opening 'C:/Users/LD/Pictures/cubariaa - Copy/story/prologue/frame0008.png' for reading
[file @ 000002abbedd10c0] Setting default whitelist 'file,crypto,data'
[AVIOContext @ 000002abbedcfd40] Statistics: 11852 bytes read, 0 seeks
[image2 @ 000002abbedcc100] Opening 'C:/Users/LD/Pictures/cubariaa - Copy/story/prologue/frame0009.png' for reading
[file @ 000002abbedd10c0] Setting default whitelist 'file,crypto,data'
[AVIOContext @ 000002abbedcfd40] Statistics: 11871 bytes read, 0 seeks
[image2 @ 000002abbedcc100] Opening 'C:/Users/LD/Pictures/cubariaa - Copy/story/prologue/frame0010.png' for reading
[file @ 000002abbedd10c0] Setting default whitelist 'file,crypto,data'
[AVIOContext @ 000002abbedcfd40] Statistics: 11895 bytes read, 0 seeks
[image2 @ 000002abbedcc100] Opening 'C:/Users/LD/Pictures/cubariaa - Copy/story/prologue/frame0011.png' for reading
[file @ 000002abbedd10c0] Setting default whitelist 'file,crypto,data'
[AVIOContext @ 000002abbedcfd40] Statistics: 11932 bytes read, 0 seeks
[image2 @ 000002abbedcc100] Opening 'C:/Users/LD/Pictures/cubariaa - Copy/story/prologue/frame0012.png' for reading
[file @ 000002abbedd10c0] Setting default whitelist 'file,crypto,data'
[AVIOContext @ 000002abbedcfd40] Statistics: 11949 bytes read, 0 seeks
[image2 @ 000002abbedcc100] Opening 'C:/Users/LD/Pictures/cubariaa - Copy/story/prologue/frame0013.png' for reading
[file @ 000002abbedd10c0] Setting default whitelist 'file,crypto,data'
[AVIOContext @ 000002abbedcfd40] Statistics: 11935 bytes read, 0 seeks
[image2 @ 000002abbedcc100] Opening 'C:/Users/LD/Pictures/cubariaa - Copy/story/prologue/frame0014.png' for reading
[file @ 000002abbedd10c0] Setting default whitelist 'file,crypto,data'
[AVIOContext @ 000002abbedcfd40] Statistics: 11977 bytes read, 0 seeks
[image2 @ 000002abbedcc100] Opening 'C:/Users/LD/Pictures/cubariaa - Copy/story/prologue/frame0015.png' for reading
[file @ 000002abbedd10c0] Setting default whitelist 'file,crypto,data'
[AVIOContext @ 000002abbedcfd40] Statistics: 11958 bytes read, 0 seeks
[image2 @ 000002abbedcc100] Opening 'C:/Users/LD/Pictures/cubariaa - Copy/story/prologue/frame0016.png' for reading
[file @ 000002abbedd10c0] Setting default whitelist 'file,crypto,data'
[AVIOContext @ 000002abbedcfd40] Statistics: 11936 bytes read, 0 seeks
[image2 @ 000002abbedcc100] Opening 'C:/Users/LD/Pictures/cubariaa - Copy/story/prologue/frame0017.png' for reading
[file @ 000002abbedd10c0] Setting default whitelist 'file,crypto,data'
[AVIOContext @ 000002abbedcfd40] Statistics: 11901 bytes read, 0 seeks
[image2 @ 000002abbedcc100] Opening 'C:/Users/LD/Pictures/cubariaa - Copy/story/prologue/frame0018.png' for reading
[file @ 000002abbedd10c0] Setting default whitelist 'file,crypto,data'
[AVIOContext @ 000002abbedcfd40] Statistics: 11866 bytes read, 0 seeks
[image2 @ 000002abbedcc100] Opening 'C:/Users/LD/Pictures/cubariaa - Copy/story/prologue/frame0019.png' for reading
[file @ 000002abbedd10c0] Setting default whitelist 'file,crypto,data'
[AVIOContext @ 000002abbedcfd40] Statistics: 11813 bytes read, 0 seeks
[image2 @ 000002abbedcc100] Opening 'C:/Users/LD/Pictures/cubariaa - Copy/story/prologue/frame0020.png' for reading
[file @ 000002abbedd10c0] Setting default whitelist 'file,crypto,data'
[AVIOContext @ 000002abbedcfd40] Statistics: 11813 bytes read, 0 seeks
Input #0, image2, from 'C:/Users/LD/Pictures/cubariaa - Copy/story/prologue/frame%04d.png':
  Duration: 00:00:00.84, start: 0.000000, bitrate: N/A
  Stream #0:0, 21, 1/25: Video: png, 1 reference frame, rgba(pc), 500x500 [SAR 3937:3937 DAR 1:1], 0/1, 25 fps, 25 tbr, 25 tbn
Successfully opened the file.
Parsing a group of options: input url C:/Users/LD/Pictures/cubariaa - Copy/story/prologue/palette.png.
Successfully parsed a group of options.
Opening an input file: C:/Users/LD/Pictures/cubariaa - Copy/story/prologue/palette.png.
[NULL @ 000002abbedcecc0] Opening 'C:/Users/LD/Pictures/cubariaa - Copy/story/prologue/palette.png' for reading
[file @ 000002abbedcc000] Setting default whitelist 'file,crypto,data'
[png_pipe @ 000002abbedcecc0] Format png_pipe probed with size=2048 and score=99
[png_pipe @ 000002abbedcecc0] Before avformat_find_stream_info() pos: 0 bytes read:158 seeks:0 nb_streams:1
[png_pipe @ 000002abbedcecc0] After avformat_find_stream_info() pos: 158 bytes read:158 seeks:0 frames:1
Input #1, png_pipe, from 'C:/Users/LD/Pictures/cubariaa - Copy/story/prologue/palette.png':
  Duration: N/A, bitrate: N/A
  Stream #1:0, 1, 1/25: Video: png, 1 reference frame, rgba(pc), 16x16 [SAR 1:1 DAR 1:1], 0/1, 25 fps, 25 tbr, 25 tbn
Successfully opened the file.
Parsing a group of options: output url C:/Users/LD/Pictures/cubariaa - Copy/story/prologue/gollect.gif.
Successfully parsed a group of options.
Opening an output file: C:/Users/LD/Pictures/cubariaa - Copy/story/prologue/gollect.gif.
[file @ 000002abbee1ddc0] Setting default whitelist 'file,crypto,data'
Successfully opened the file.
detected 12 logical cores
Stream mapping:
  Stream #0:0 (png) -> paletteuse:default
  Stream #1:0 (png) -> paletteuse:palette
  paletteuse -> Stream #0:0 (gif)
cur_dts is invalid st:0 (0) [init:0 i_done:0 finish:0] (this is harmless if it occurs once at the start per stream)
[image2 @ 000002abbedcc100] Thread message queue blocking; consider raising the thread_queue_size option (current value: 8)
cur_dts is invalid st:0 (0) [init:0 i_done:0 finish:0] (this is harmless if it occurs once at the start per stream)
    Last message repeated 13 times
[graph 0 input from stream 0:0 @ 000002abbf26c480] Setting 'video_size' to value '500x500'
[graph 0 input from stream 0:0 @ 000002abbf26c480] Setting 'pix_fmt' to value '26'
[graph 0 input from stream 0:0 @ 000002abbf26c480] Setting 'time_base' to value '1/24'
[graph 0 input from stream 0:0 @ 000002abbf26c480] Setting 'pixel_aspect' to value '3937/3937'
[graph 0 input from stream 0:0 @ 000002abbf26c480] Setting 'frame_rate' to value '24/1'
[graph 0 input from stream 0:0 @ 000002abbf26c480] w:500 h:500 pixfmt:rgba tb:1/24 fr:24/1 sar:3937/3937
[graph 0 input from stream 1:0 @ 000002abbf39dfc0] Setting 'video_size' to value '16x16'
[graph 0 input from stream 1:0 @ 000002abbf39dfc0] Setting 'pix_fmt' to value '26'
[graph 0 input from stream 1:0 @ 000002abbf39dfc0] Setting 'time_base' to value '1/25'
[graph 0 input from stream 1:0 @ 000002abbf39dfc0] Setting 'pixel_aspect' to value '1/1'
[graph 0 input from stream 1:0 @ 000002abbf39dfc0] Setting 'frame_rate' to value '25/1'
[graph 0 input from stream 1:0 @ 000002abbf39dfc0] w:16 h:16 pixfmt:rgba tb:1/25 fr:25/1 sar:1/1
[format @ 000002abbf39fdc0] Setting 'pix_fmts' to value 'rgb8|bgr8|rgb4_byte|bgr4_byte|gray|pal8'
[auto_scale_0 @ 000002abbf3a05c0] w:iw h:ih flags:'' interl:0
[Parsed_paletteuse_0 @ 000002abbf26c280] auto-inserting filter 'auto_scale_0' between the filter 'graph 0 input from stream 0:0' and the filter 'Parsed_paletteuse_0'
[auto_scale_1 @ 000002abbf3a1ac0] w:iw h:ih flags:'' interl:0
[Parsed_paletteuse_0 @ 000002abbf26c280] auto-inserting filter 'auto_scale_1' between the filter 'graph 0 input from stream 1:0' and the filter 'Parsed_paletteuse_0'
[AVFilterGraph @ 000002abbffe7d00] query_formats: 5 queried, 4 merged, 2 already done, 0 delayed
[swscaler @ 000002abbf3b4640] [swscaler @ 000002abbf3c1600] Forcing full internal H chroma due to input having non subsampled chroma
[swscaler @ 000002abbf3b4640] [swscaler @ 000002abbf3d5680] Forcing full internal H chroma due to input having non subsampled chroma
[swscaler @ 000002abbf3b4640] [swscaler @ 000002abbf3f0640] Forcing full internal H chroma due to input having non subsampled chroma
[swscaler @ 000002abbf3b4640] [swscaler @ 000002abbffe8f80] Forcing full internal H chroma due to input having non subsampled chroma
[swscaler @ 000002abbf3b4640] [swscaler @ 000002abbee1dfc0] Forcing full internal H chroma due to input having non subsampled chroma
[swscaler @ 000002abbf3b4640] [swscaler @ 000002abbee2af80] Forcing full internal H chroma due to input having non subsampled chroma
[swscaler @ 000002abbf3b4640] [swscaler @ 000002abbee3ecc0] Forcing full internal H chroma due to input having non subsampled chroma
[swscaler @ 000002abbf3b4640] [swscaler @ 000002abc10200c0] Forcing full internal H chroma due to input having non subsampled chroma
[swscaler @ 000002abbf3b4640] [swscaler @ 000002abc103dd80] Forcing full internal H chroma due to input having non subsampled chroma
[swscaler @ 000002abbf3b4640] [swscaler @ 000002abc1065dc0] Forcing full internal H chroma due to input having non subsampled chroma
[swscaler @ 000002abbf3b4640] [swscaler @ 000002abc1078e00] Forcing full internal H chroma due to input having non subsampled chroma
[swscaler @ 000002abbf3b4640] [swscaler @ 000002abc108be00] Forcing full internal H chroma due to input having non subsampled chroma
[swscaler @ 000002abbf3b4640] [swscaler @ 000002abc10b2e40] Forcing full internal H chroma due to input having non subsampled chroma
[auto_scale_0 @ 000002abbf3a05c0] w:500 h:500 fmt:rgba sar:3937/3937 -> w:500 h:500 fmt:bgra sar:1/1 flags:0x0
[swscaler @ 000002abc10c5e80] [swscaler @ 000002abc10d6e40] Forcing full internal H chroma due to input having non subsampled chroma
[swscaler @ 000002abc10c5e80] [swscaler @ 000002abc10ebe80] Forcing full internal H chroma due to input having non subsampled chroma
[swscaler @ 000002abc10c5e80] [swscaler @ 000002abc10fee80] Forcing full internal H chroma due to input having non subsampled chroma
[swscaler @ 000002abc10c5e80] [swscaler @ 000002abc1111ec0] Forcing full internal H chroma due to input having non subsampled chroma
[swscaler @ 000002abc10c5e80] [swscaler @ 000002abc1124ec0] Forcing full internal H chroma due to input having non subsampled chroma
[swscaler @ 000002abc10c5e80] [swscaler @ 000002abc113bf00] Forcing full internal H chroma due to input having non subsampled chroma
[swscaler @ 000002abc10c5e80] [swscaler @ 000002abc114ef40] Forcing full internal H chroma due to input having non subsampled chroma
[swscaler @ 000002abc10c5e80] [swscaler @ 000002abc1161f40] Forcing full internal H chroma due to input having non subsampled chroma
[swscaler @ 000002abc10c5e80] [swscaler @ 000002abc1174f80] Forcing full internal H chroma due to input having non subsampled chroma
[swscaler @ 000002abc10c5e80] [swscaler @ 000002abc1187f80] Forcing full internal H chroma due to input having non subsampled chroma
[swscaler @ 000002abc10c5e80] [swscaler @ 000002abc119afc0] Forcing full internal H chroma due to input having non subsampled chroma
[swscaler @ 000002abc10c5e80] [swscaler @ 000002abc11adfc0] Forcing full internal H chroma due to input having non subsampled chroma
[swscaler @ 000002abc10c5e80] [swscaler @ 000002abc11c1000] Forcing full internal H chroma due to input having non subsampled chroma
[auto_scale_1 @ 000002abbf3a1ac0] w:16 h:16 fmt:rgba sar:1/1 -> w:16 h:16 fmt:bgra sar:1/1 flags:0x0
[Parsed_paletteuse_0 @ 000002abbf26c280] [framesync @ 000002abc0018088] Selected 1/600 time base
[Parsed_paletteuse_0 @ 000002abbf26c280] [framesync @ 000002abc0018088] Sync level 2
Output #0, gif, to 'C:/Users/LD/Pictures/cubariaa - Copy/story/prologue/gollect.gif':
  Metadata:
    encoder         : Lavf59.6.100
  Stream #0:0, 0, 1/100: Video: gif, 1 reference frame, pal8(pc, gbr/unknown/unknown, progressive), 500x500 (0x0) [SAR 1:1 DAR 1:1], 0/1, q=2-31, 200 kb/s, 24 fps, 100 tbn (default)
    Metadata:
      encoder         : Lavc59.12.100 gif
Clipping frame in rate conversion by 0.000008
frame=    1 fps=0.0 q=-0.0 size=       0kB time=00:00:00.01 bitrate=   0.0kbits/s speed=1.97x    [gif @ 000002abbedda900] 69x97 image at pos (207;236) [area:500x500]
[gif @ 000002abbedda900] 83x94 image at pos (184;236) [area:500x500]
[gif @ 000002abbedda900] 90x84 image at pos (166;237) [area:500x500]
[gif @ 000002abbedda900] 91x76 image at pos (155;221) [area:500x500]
[gif @ 000002abbedda900] 92x76 image at pos (155;195) [area:500x500]
[gif @ 000002abbedda900] 84x86 image at pos (167;178) [area:500x500]
[gif @ 000002abbedda900] 82x100 image at pos (174;161) [area:500x500]
[gif @ 000002abbedda900] 68x130 image at pos (192;129) [area:500x500]
[gif @ 000002abbedda900] 62x130 image at pos (202;129) [area:500x500]
[gif @ 000002abbedda900] 54x120 image at pos (213;139) [area:500x500]
[gif @ 000002abbedda900] 48x112 image at pos (225;147) [area:500x500]
[gif @ 000002abbedda900] 43x96 image at pos (233;162) [area:500x500]
[gif @ 000002abbedda900] 34x51 image at pos (241;170) [area:500x500]
[gif @ 000002abbedda900] 29x50 image at pos (244;170) [area:500x500]
[gif @ 000002abbedda900] 28x37 image at pos (245;180) [area:500x500]
[gif @ 000002abbedda900] 21x27 image at pos (249;187) [area:500x500]
[gif @ 000002abbedda900] 17x19 image at pos (251;193) [area:500x500]
[gif @ 000002abbedda900] 10x8 image at pos (255;203) [area:500x500]
[gif @ 000002abbedda900] 6x5 image at pos (257;205) [area:500x500]
[gif @ 000002abbedda900] 1x1 image at pos (499;499) [area:500x500]
[Parsed_paletteuse_0 @ 000002abbf26c280] [framesync @ 000002abc0018088] Sync level 0
[out_0_0 @ 000002abbf39f0c0] EOF on sink link out_0_0:default.
No more output streams to write to, finishing.
frame=   21 fps=0.0 q=-0.0 Lsize=      14kB time=00:00:00.84 bitrate= 135.9kbits/s speed=6.67x    
[AVIOContext @ 000002abbedcbcc0] Statistics: 0 seeks, 2 writeouts
video:14kB audio:0kB subtitle:0kB other streams:0kB global headers:0kB muxing overhead: 0.140371%
Input file #0 (C:/Users/LD/Pictures/cubariaa - Copy/story/prologue/frame%04d.png):
  Input stream #0:0 (video): 21 packets read (249966 bytes); 21 frames decoded; 
  Total: 21 packets (249966 bytes) demuxed
Input file #1 (C:/Users/LD/Pictures/cubariaa - Copy/story/prologue/palette.png):
  Input stream #1:0 (video): 1 packets read (158 bytes); 1 frames decoded; 
  Total: 1 packets (158 bytes) demuxed
Output file #0 (C:/Users/LD/Pictures/cubariaa - Copy/story/prologue/gollect.gif):
  Output stream #0:0 (video): 21 frames encoded; 21 packets muxed (14248 bytes); 
  Total: 21 packets (14248 bytes) muxed
22 frames successfully decoded, 0 decoding errors
[AVIOContext @ 000002abbeddb540] Statistics: 0 seeks, 1 writeouts
[AVIOContext @ 000002abbedcff00] Statistics: 158 bytes read, 0 seeks
